<svg width="23" height="17" viewBox="0 0 23 17" fill="none" xmlns="http://www.w3.org/2000/svg">
<path d="M1.39921 0C1.0279 0 0.671808 0.1475 0.409257 0.410051C0.146706 0.672602 -0.000793457 1.0287 -0.000793457 1.4V15.4C-0.000793457 15.7713 0.146706 16.1274 0.409257 16.3899C0.671808 16.6525 1.0279 16.8 1.39921 16.8H2.86921C3.02987 16.0088 3.45912 15.2975 4.08423 14.7865C4.70933 14.2756 5.49186 13.9965 6.29921 13.9965C7.10655 13.9965 7.88908 14.2756 8.51419 14.7865C9.1393 15.2975 9.56855 16.0088 9.72921 16.8H11.1992C11.5705 16.8 11.9266 16.6525 12.1892 16.3899C12.4517 16.1274 12.5992 15.7713 12.5992 15.4V1.4C12.5992 1.0287 12.4517 0.672602 12.1892 0.410051C11.9266 0.1475 11.5705 0 11.1992 0H1.39921ZM16.7992 4.2C16.4279 4.2 16.0718 4.3475 15.8093 4.61005C15.5467 4.8726 15.3992 5.2287 15.3992 5.6V14.07C15.8496 13.978 16.3138 13.9756 16.7652 14.063C17.2165 14.1504 17.6462 14.3259 18.0298 14.5794C18.4133 14.8329 18.7431 15.1595 19.0004 15.5405C19.2577 15.9216 19.4374 16.3495 19.5292 16.8H20.9992C21.3705 16.8 21.7266 16.6525 21.9892 16.3899C22.2517 16.1274 22.3992 15.7713 22.3992 15.4L22.1984 8.40002C22.1983 8.02875 22.1984 4.40002 22.1984 4.40002H19.1984C19.1984 4.40002 18.5705 4.20008 18.1992 4.2H16.7992Z" fill="black"/>
</svg>
