<svg width="20" height="24" viewBox="0 0 20 24" fill="none" xmlns="http://www.w3.org/2000/svg">
<path d="M11.4 21.8C11.4001 22.0386 11.4612 22.2731 11.5775 22.4815C11.6937 22.6898 11.8612 22.8649 12.0642 22.9903C12.2671 23.1157 12.4987 23.1871 12.737 23.1979C12.9753 23.2086 13.2124 23.1583 13.4258 23.0516L19.0258 20.2516C19.2583 20.1354 19.4539 19.9568 19.5906 19.7358C19.7274 19.5147 19.7999 19.26 19.8 19V10.9304C19.7999 10.6919 19.7388 10.4573 19.6226 10.249C19.5063 10.0407 19.3388 9.86554 19.1359 9.74016C18.9329 9.61478 18.7013 9.54333 18.463 9.5326C18.2247 9.52187 17.9876 9.5722 17.7742 9.67883L12.1742 12.4788C11.9417 12.595 11.7461 12.7736 11.6094 12.9947C11.4726 13.2158 11.4002 13.4705 11.4 13.7304V21.8ZM17.2954 6.78643C17.5276 6.67004 17.7229 6.49133 17.8594 6.27029C17.9958 6.04925 18.0681 5.7946 18.0681 5.53483C18.0681 5.27506 17.9958 5.02042 17.8594 4.79938C17.7229 4.57834 17.5276 4.39963 17.2954 4.28323L10.6258 0.948433C10.4315 0.851332 10.2172 0.800781 10 0.800781C9.78278 0.800781 9.56853 0.851332 9.37421 0.948433L2.70461 4.28323C2.47238 4.39963 2.27711 4.57834 2.14064 4.79938C2.00418 5.02042 1.93191 5.27506 1.93191 5.53483C1.93191 5.7946 2.00418 6.04925 2.14064 6.27029C2.27711 6.49133 2.47238 6.67004 2.70461 6.78643L9.37421 10.1212C9.56853 10.2183 9.78278 10.2689 10 10.2689C10.2172 10.2689 10.4315 10.2183 10.6258 10.1212L17.2954 6.78643ZM2.22581 9.67883C2.01242 9.5722 1.77533 9.52187 1.53702 9.5326C1.29871 9.54333 1.0671 9.61478 0.864164 9.74016C0.661225 9.86554 0.493689 10.0407 0.377454 10.249C0.261219 10.4573 0.20014 10.6919 0.200012 10.9304V19C0.200151 19.26 0.272649 19.5147 0.409385 19.7358C0.546122 19.9568 0.741699 20.1354 0.974212 20.2516L6.57421 23.0516C6.7876 23.1583 7.0247 23.2086 7.263 23.1979C7.50131 23.1871 7.73292 23.1157 7.93586 22.9903C8.1388 22.8649 8.30633 22.6898 8.42257 22.4815C8.53881 22.2731 8.59988 22.0386 8.60001 21.8V13.7304C8.59987 13.4705 8.52738 13.2158 8.39064 12.9947C8.2539 12.7736 8.05832 12.595 7.82581 12.4788L2.22581 9.67883Z" fill="black"/>
</svg>
